<svg width="70" height="20" viewBox="0 0 70 20" fill="#FFFFFF" xmlns="http://www.w3.org/2000/svg">
	<g clip-path="url(#clip0_103_1694)">
		<path d="M9.83952 19.9994C6.46639 20.0208 1.89452 15.4311 0.596891 12.4492V12.4385L0.570641 12.3778C-0.0873591 10.7797 -0.240484 9.44052 0.483141 7.68978C1.58389 5.0168 7.12702 -1.19246 11.1266 0.20384C13.9853 1.20107 25.7243 8.50667 14.4586 17.7514C13.0149 18.9281 11.5563 19.9896 9.83952 19.9994ZM4.78552 11.6841C6.08577 14.0053 9.01264 16.7149 11.3086 15.2123C16.0004 12.1421 15.9356 9.17983 13.4148 6.62291C10.4861 3.65353 8.64952 4.15974 6.31414 6.64434C5.76114 7.23268 5.29477 7.61836 4.73914 8.71558C4.33927 9.50926 4.25702 10.7431 4.78552 11.685V11.6841Z" />
		<path d="M30.6713 14.5069C31.114 14.5069 31.5224 14.498 31.8963 14.4802C32.2702 14.4623 32.6546 14.4236 33.0495 14.3641C33.0773 14.3569 33.1063 14.3555 33.1346 14.36C33.163 14.3644 33.1902 14.3745 33.2147 14.3898C33.2391 14.4052 33.2603 14.4253 33.2771 14.4491C33.2938 14.4729 33.3057 14.4998 33.312 14.5284C33.3182 14.5578 33.3182 14.5882 33.312 14.6176V15.9568C33.312 16.1104 33.219 16.2172 33.0329 16.2773C32.5762 16.4214 32.1076 16.5227 31.6329 16.58C31.1291 16.6496 30.6214 16.6854 30.113 16.6871C29.2959 16.7104 28.4822 16.5712 27.7173 16.2773C27.0963 16.0267 26.5489 15.6175 26.1274 15.089C25.6991 14.5293 25.3949 13.8814 25.2358 13.1901C25.04 12.3555 24.946 11.4994 24.9558 10.6412V9.82165C24.9461 8.96402 25.0372 8.1083 25.227 7.27277C25.3804 6.58259 25.679 5.93466 26.102 5.37383C26.5188 4.84441 27.0638 4.43513 27.6832 4.18644C28.4482 3.89269 29.2618 3.75352 30.0789 3.77665C31.03 3.78334 31.9745 3.93963 32.8789 4.24001C32.9592 4.26022 33.0321 4.30361 33.0889 4.36499C33.1265 4.42306 33.1449 4.49189 33.1414 4.5614V5.84522C33.1506 5.90234 33.1374 5.96084 33.1046 6.00811C33.0719 6.05538 33.0222 6.08762 32.9664 6.09788C32.9376 6.10417 32.9077 6.10417 32.8789 6.09788C32.5522 6.05145 32.197 6.01574 31.8131 5.99074C31.4293 5.96574 31.0391 5.95414 30.6424 5.95592C30.1633 5.94241 29.6859 6.02115 29.2354 6.18804C28.8662 6.33505 28.5474 6.58926 28.3184 6.91923C28.0663 7.29712 27.8965 7.72576 27.8205 8.17626C27.7133 8.76709 27.6635 9.36726 27.6718 9.96807V10.5207C27.6633 11.119 27.7146 11.7167 27.8249 12.3045C27.9065 12.7541 28.0823 13.1805 28.3403 13.5544C28.5789 13.8805 28.9032 14.1309 29.2756 14.2766C29.7241 14.4421 30.1989 14.5206 30.6757 14.5078L30.6713 14.5069ZM35.3377 4.27304C35.3377 4.08198 35.4251 3.98735 35.6002 3.98735H37.7667C37.8314 3.97791 37.8972 3.99509 37.9495 4.0351C38.0018 4.0751 38.0365 4.13468 38.0458 4.20072C38.0493 4.2247 38.0493 4.24906 38.0458 4.27304V13.4901C38.0267 13.7582 38.0877 14.0259 38.2208 14.2579C38.3127 14.3539 38.4254 14.4265 38.5499 14.4699C38.6744 14.5133 38.8071 14.5263 38.9374 14.5078H43.0779C43.11 14.503 43.1427 14.5048 43.1741 14.5129C43.2055 14.5211 43.235 14.5355 43.261 14.5553C43.2869 14.5751 43.3087 14.6 43.3252 14.6285C43.3417 14.6569 43.3525 14.6885 43.357 14.7212C43.3605 14.7449 43.3605 14.769 43.357 14.7926V16.1122C43.357 16.3377 43.2582 16.4568 43.0604 16.4693C42.4187 16.5288 41.6849 16.5794 40.8589 16.621C40.0329 16.6627 39.1766 16.6835 38.2899 16.6835C37.8228 16.6924 37.3564 16.6444 36.9004 16.5407C36.5633 16.4666 36.2485 16.3111 35.9825 16.0872C35.7446 15.8702 35.572 15.5888 35.4846 15.2756C35.377 14.8751 35.3272 14.4606 35.3368 14.0454L35.3377 4.27304ZM47.6927 16.1648C47.6985 16.2061 47.6949 16.2482 47.682 16.2877C47.6691 16.3273 47.6474 16.3632 47.6185 16.3927C47.5896 16.4222 47.5544 16.4444 47.5156 16.4575C47.4768 16.4706 47.4356 16.4744 47.3951 16.4684H45.2812C45.247 16.4734 45.2123 16.4716 45.1788 16.4629C45.1454 16.4542 45.114 16.4389 45.0863 16.4179C45.0587 16.3968 45.0354 16.3704 45.0178 16.3402C45.0002 16.3099 44.9886 16.2764 44.9837 16.2416C44.9802 16.2161 44.9802 16.1903 44.9837 16.1648V4.30875C44.9837 4.09448 45.0828 3.98735 45.2812 3.98735H47.3951C47.5935 3.98735 47.6927 4.09448 47.6927 4.30875V16.1648ZM55.8704 14.5069C56.3143 14.5069 56.7227 14.498 57.0954 14.4802C57.4682 14.4623 57.8526 14.4236 58.2487 14.3641C58.2765 14.3569 58.3054 14.3555 58.3338 14.36C58.3621 14.3644 58.3893 14.3745 58.4138 14.3898C58.4383 14.4052 58.4595 14.4253 58.4762 14.4491C58.4929 14.4729 58.5048 14.4998 58.5112 14.5284C58.5164 14.5564 58.5164 14.5852 58.5112 14.6132V15.9524C58.5112 16.1068 58.4184 16.2139 58.2312 16.2738C57.7744 16.4174 57.3058 16.5187 56.8312 16.5764C56.327 16.6451 55.819 16.6809 55.3104 16.6835C54.4936 16.7059 53.6803 16.5664 52.9155 16.2729C52.2951 16.0235 51.7477 15.6159 51.3257 15.089C50.8986 14.5289 50.5953 13.8811 50.4367 13.1901C50.2409 12.3555 50.1468 11.4994 50.1567 10.6412V9.82076C50.147 8.96313 50.2381 8.10741 50.4279 7.27188C50.5816 6.58182 50.8802 5.93396 51.3029 5.37294C51.7198 4.84378 52.2648 4.4348 52.884 4.18644C53.6488 3.89285 54.4621 3.75339 55.2789 3.77576C56.2301 3.78232 57.1746 3.93892 58.0789 4.24001C58.1592 4.26022 58.2321 4.30361 58.2889 4.36499C58.3264 4.42276 58.3448 4.49129 58.3414 4.56051V5.83986C58.3506 5.89698 58.3374 5.95549 58.3046 6.00276C58.2719 6.05002 58.2222 6.08227 58.1664 6.09252C58.1375 6.09834 58.1078 6.09834 58.0789 6.09252C57.7522 6.04609 57.397 6.01038 57.0132 5.98538C56.6293 5.96039 56.2391 5.94878 55.8424 5.95057C55.3633 5.93625 54.8859 6.01471 54.4354 6.1818C54.0662 6.32911 53.7472 6.58324 53.5175 6.91298C53.2668 7.29162 53.0971 7.71995 53.0197 8.17001C52.9131 8.76122 52.8636 9.36165 52.8718 9.96271V10.5153C52.8629 11.1152 52.9143 11.7144 53.0249 12.3036C53.106 12.7533 53.2819 13.1798 53.5403 13.5535C53.7786 13.8796 54.1031 14.1299 54.4757 14.2748C54.9239 14.4412 55.3988 14.5199 55.8757 14.5069H55.8704ZM69.3095 3.98735C69.3482 3.98346 69.3872 3.9915 69.4213 4.01044C69.4555 4.02938 69.4833 4.05835 69.5012 4.09359C69.5179 4.13154 69.5236 4.17361 69.5175 4.21477C69.5115 4.25592 69.4939 4.29444 69.467 4.32571L65.7273 10.0002L69.957 16.1514C69.9795 16.1799 69.9937 16.2142 69.9982 16.2504C70.0027 16.2867 69.9972 16.3235 69.9824 16.3568C69.9662 16.3959 69.9377 16.4284 69.9015 16.4492C69.8652 16.4701 69.8232 16.4781 69.782 16.4719H67.318C67.2165 16.4774 67.1151 16.4594 67.0214 16.4193C66.9409 16.3729 66.8744 16.305 66.8289 16.2229L63.2467 10.66V16.1693C63.2564 16.2396 63.2384 16.311 63.1965 16.3678C63.1547 16.4245 63.0924 16.462 63.0235 16.4719C62.9992 16.4755 62.9744 16.4755 62.95 16.4719H60.8352C60.7662 16.4819 60.6963 16.4635 60.6406 16.4208C60.585 16.3781 60.5483 16.3146 60.5385 16.2443C60.5342 16.2195 60.5342 16.1941 60.5385 16.1693V4.30785C60.5385 4.09359 60.6374 3.98646 60.8352 3.98646H62.95C63.1478 3.98646 63.2467 4.09359 63.2467 4.30785V9.33508L66.5874 4.19715C66.632 4.13064 66.692 4.07637 66.762 4.03915C66.8321 4.00193 66.9101 3.98291 66.989 3.98378L69.3095 3.98735Z" />
	</g>
	<defs>
		<clipPath id="clip0_103_1694">
			<rect width="70" height="20" />
		</clipPath>
	</defs>
</svg>
