<svg width="21" height="21" viewBox="0 0 21 21" fill="none" xmlns="http://www.w3.org/2000/svg">
    <path d="M5.19971 4.25C4.53667 4.25 3.90078 4.51339 3.43194 4.98223C2.9631 5.45107 2.69971 6.08696 2.69971 6.75V7.00125L10.1997 11.04L17.6997 7.0025V6.75C17.6997 6.08696 17.4363 5.45107 16.9675 4.98223C16.4986 4.51339 15.8627 4.25 15.1997 4.25H5.19971ZM17.6997 8.42125L10.496 12.3C10.4049 12.349 10.3031 12.3747 10.1997 12.3747C10.0963 12.3747 9.99451 12.349 9.90346 12.3L2.69971 8.42125V14.25C2.69971 14.913 2.9631 15.5489 3.43194 16.0178C3.90078 16.4866 4.53667 16.75 5.19971 16.75H15.1997C15.8627 16.75 16.4986 16.4866 16.9675 16.0178C17.4363 15.5489 17.6997 14.913 17.6997 14.25V8.42125Z" fill="white"/>
</svg>
