<svg width="33" height="32" viewBox="0 0 33 32" fill="#FFFFFF" xmlns="http://www.w3.org/2000/svg">
	<path fill-rule="evenodd"
		clip-rule="evenodd"
		d="M3.25 10.6663C3.25 7.72082 5.63781 5.33301 8.58333 5.33301H24.5833C27.5289 5.33301 29.9167 7.72082 29.9167 10.6663V21.333C29.9167 24.2785 27.5289 26.6663 24.5833 26.6663H8.58333C5.63782 26.6663 3.25 24.2785 3.25 21.333V10.6663ZM8.58333 7.99967C7.11057 7.99967 5.91667 9.19358 5.91667 10.6663V21.333C5.91667 22.8058 7.11057 23.9997 8.58333 23.9997H24.5833C26.0561 23.9997 27.25 22.8058 27.25 21.333V10.6663C27.25 9.19358 26.0561 7.99967 24.5833 7.99967H8.58333Z" />
	<path fill-rule="evenodd"
		clip-rule="evenodd"
		d="M8.87523 11.1674C9.33524 10.5924 10.1743 10.4992 10.7493 10.9592L16.5831 15.6262L22.4168 10.9592C22.9918 10.4992 23.8309 10.5924 24.2909 11.1674C24.7509 11.7425 24.6577 12.5815 24.0826 13.0415L16.5831 19.0412L9.08346 13.0415C8.50845 12.5815 8.41522 11.7425 8.87523 11.1674Z" />
</svg>
