<svg width="25" height="24" viewBox="0 0 25 24" fill="none" xmlns="http://www.w3.org/2000/svg">
<path fill-rule="evenodd" clip-rule="evenodd" d="M7.5 4C5.84315 4 4.5 5.34315 4.5 7V17C4.5 18.6569 5.84315 20 7.5 20H17.5C19.1569 20 20.5 18.6569 20.5 17V13C20.5 12.4477 20.9477 12 21.5 12C22.0523 12 22.5 12.4477 22.5 13V17C22.5 19.7614 20.2614 22 17.5 22H7.5C4.73858 22 2.5 19.7614 2.5 17V7C2.5 4.23858 4.73858 2 7.5 2H11.5C12.0523 2 12.5 2.44772 12.5 3C12.5 3.55228 12.0523 4 11.5 4H7.5Z" fill="white"/>
<path fill-rule="evenodd" clip-rule="evenodd" d="M22.2071 2.29289C22.5976 2.68342 22.5976 3.31658 22.2071 3.70711L13.2071 12.7071C12.8166 13.0976 12.1834 13.0976 11.7929 12.7071C11.4024 12.3166 11.4024 11.6834 11.7929 11.2929L20.7929 2.29289C21.1834 1.90237 21.8166 1.90237 22.2071 2.29289Z" fill="white"/>
<path fill-rule="evenodd" clip-rule="evenodd" d="M14.5 3C14.5 2.44772 14.9477 2 15.5 2H21.5C22.0523 2 22.5 2.44772 22.5 3V9C22.5 9.55228 22.0523 10 21.5 10C20.9477 10 20.5 9.55228 20.5 9V4H15.5C14.9477 4 14.5 3.55228 14.5 3Z" fill="white"/>
</svg>
