<svg width="36" height="28" viewBox="0 0 36 28" fill="#FFFFFF" xmlns="http://www.w3.org/2000/svg">
	<g clip-path="url(#clip0_103_1686)">
		<path d="M6.52453 27.9385V26.0803C6.52453 25.3695 6.09218 24.904 5.34999 24.904C4.97889 24.904 4.57537 25.0267 4.29795 25.4308C4.08178 25.0916 3.77193 24.904 3.30716 24.904C2.99731 24.904 2.68746 24.9978 2.44246 25.337V24.9654H1.79395V27.9385H2.44246V26.2968C2.44246 25.77 2.71989 25.521 3.15223 25.521C3.58458 25.521 3.80075 25.7989 3.80075 26.2968V27.9385H4.44927V26.2968C4.44927 25.77 4.75912 25.521 5.15904 25.521C5.59138 25.521 5.80756 25.7989 5.80756 26.2968V27.9385H6.52453ZM16.1442 24.9654H15.0922V24.0669H14.4437V24.9654H13.8564V25.5535H14.4437V26.9174C14.4437 27.5994 14.7211 27.9999 15.4633 27.9999C15.7407 27.9999 16.0506 27.9061 16.2667 27.7834L16.0794 27.2241C15.892 27.3468 15.6759 27.3793 15.5209 27.3793C15.2111 27.3793 15.0886 27.1916 15.0886 26.8849V25.5535H16.1406V24.9654H16.1442ZM21.6494 24.9004C21.2783 24.9004 21.0297 25.088 20.8748 25.3334V24.9617H20.2263V27.9349H20.8748V26.2607C20.8748 25.7664 21.091 25.4849 21.4945 25.4849C21.617 25.4849 21.7719 25.5174 21.898 25.5463L22.0854 24.9257C21.9557 24.9004 21.7719 24.9004 21.6494 24.9004ZM13.3304 25.2107C13.0205 24.9942 12.5882 24.9004 12.1234 24.9004C11.3812 24.9004 10.8876 25.2721 10.8876 25.8602C10.8876 26.3545 11.2587 26.636 11.9072 26.7262L12.2171 26.7586C12.5558 26.82 12.7431 26.9138 12.7431 27.069C12.7431 27.2855 12.4945 27.4406 12.0622 27.4406C11.6298 27.4406 11.2875 27.2855 11.0714 27.1303L10.7615 27.6246C11.1002 27.8736 11.565 27.9963 12.0297 27.9963C12.8944 27.9963 13.3916 27.5922 13.3916 27.0365C13.3916 26.5097 12.9881 26.2318 12.372 26.138L12.0622 26.1056C11.7847 26.0731 11.5686 26.0117 11.5686 25.8277C11.5686 25.6112 11.7847 25.4885 12.127 25.4885C12.4981 25.4885 12.8692 25.6437 13.0566 25.7375L13.3304 25.2107ZM30.5846 24.9004C30.2135 24.9004 29.9649 25.088 29.81 25.3334V24.9617H29.1614V27.9349H29.81V26.2607C29.81 25.7664 30.0261 25.4849 30.4297 25.4849C30.5522 25.4849 30.7071 25.5174 30.8332 25.5463L31.0205 24.9329C30.8944 24.9004 30.7107 24.9004 30.5846 24.9004ZM22.298 26.4519C22.298 27.3504 22.9176 27.9999 23.876 27.9999C24.3084 27.9999 24.6182 27.9061 24.9281 27.6607L24.6182 27.1339C24.3696 27.3215 24.1246 27.4117 23.8436 27.4117C23.3176 27.4117 22.9465 27.0401 22.9465 26.4519C22.9465 25.8927 23.3176 25.521 23.8436 25.4922C24.121 25.4922 24.3696 25.586 24.6182 25.77L24.9281 25.2432C24.6182 24.9942 24.3084 24.904 23.876 24.904C22.9176 24.9004 22.298 25.5535 22.298 26.4519ZM28.2968 26.4519V24.9654H27.6482V25.337C27.4321 25.0592 27.1222 24.904 26.7187 24.904C25.8828 24.904 25.2343 25.5535 25.2343 26.4519C25.2343 27.3504 25.8828 27.9999 26.7187 27.9999C27.151 27.9999 27.4609 27.8447 27.6482 27.5669V27.9385H28.2968V26.4519ZM25.9152 26.4519C25.9152 25.9251 26.2539 25.4922 26.8124 25.4922C27.3384 25.4922 27.7095 25.8963 27.7095 26.4519C27.7095 26.9788 27.3384 27.4117 26.8124 27.4117C26.2575 27.3793 25.9152 26.9751 25.9152 26.4519ZM18.1546 24.9004C17.2899 24.9004 16.6702 25.521 16.6702 26.4483C16.6702 27.3793 17.2899 27.9963 18.1871 27.9963C18.6194 27.9963 19.0518 27.8736 19.394 27.5922L19.0842 27.1267C18.8356 27.3143 18.5257 27.437 18.2195 27.437C17.816 27.437 17.416 27.2494 17.3224 26.7262H19.5165C19.5165 26.6324 19.5165 26.571 19.5165 26.4772C19.5453 25.521 18.9869 24.9004 18.1546 24.9004ZM18.1546 25.4597C18.5582 25.4597 18.8356 25.7087 18.8968 26.1705H17.3512C17.4124 25.77 17.6899 25.4597 18.1546 25.4597ZM34.2667 26.4519V23.7891H33.6182V25.337C33.402 25.0592 33.0922 24.904 32.6887 24.904C31.8528 24.904 31.2043 25.5535 31.2043 26.4519C31.2043 27.3504 31.8528 27.9999 32.6887 27.9999C33.121 27.9999 33.4309 27.8447 33.6182 27.5669V27.9385H34.2667V26.4519ZM31.8852 26.4519C31.8852 25.9251 32.2239 25.4922 32.7823 25.4922C33.3084 25.4922 33.6795 25.8963 33.6795 26.4519C33.6795 26.9788 33.3084 27.4117 32.7823 27.4117C32.2239 27.3793 31.8852 26.9751 31.8852 26.4519ZM10.1742 26.4519V24.9654H9.52573V25.337C9.30956 25.0592 8.99971 24.904 8.59619 24.904C7.76032 24.904 7.1118 25.5535 7.1118 26.4519C7.1118 27.3504 7.76032 27.9999 8.59619 27.9999C9.02853 27.9999 9.33838 27.8447 9.52573 27.5669V27.9385H10.1742V26.4519ZM7.76392 26.4519C7.76392 25.9251 8.10259 25.4922 8.66104 25.4922C9.18706 25.4922 9.55816 25.8963 9.55816 26.4519C9.55816 26.9788 9.18706 27.4117 8.66104 27.4117C8.10259 27.3793 7.76392 26.9751 7.76392 26.4519Z" />
		<path d="M22.8565 2.38477H13.1143V19.9136H22.8565V2.38477Z" fill="#DFDFDF" />
		<path d="M13.763 11.1495C13.763 7.58814 15.4347 4.42732 18 2.38505C16.1121 0.898453 13.7306 0 11.1329 0C4.97918 0 0 4.9866 0 11.1495C0 17.3124 4.97918 22.299 11.1329 22.299C13.7306 22.299 16.1121 21.4005 18 19.9139C15.4311 17.9005 13.763 14.7108 13.763 11.1495Z" />
		<path d="M36 11.1495C36 17.3124 31.0208 22.299 24.8671 22.299C22.2694 22.299 19.8879 21.4005 18 19.9139C20.5977 17.868 22.237 14.7108 22.237 11.1495C22.237 7.58814 20.5653 4.42732 18 2.38505C19.8843 0.898453 22.2658 0 24.8635 0C31.0208 0 36 5.01907 36 11.1495Z" />
	</g>
	<defs>
		<clipPath id="clip0_103_1686">
			<rect width="36" height="28" />
		</clipPath>
	</defs>
</svg>
