<svg width="33" height="32" viewBox="0 0 33 32" fill="#FFFFFF" xmlns="http://www.w3.org/2000/svg">
	<path fill-rule="evenodd"
		clip-rule="evenodd"
		d="M17.8298 9.3164C18.1041 8.63304 18.8805 8.30149 19.5639 8.57585C20.6024 8.99281 21.5419 9.62302 22.3216 10.4258C23.1014 11.2285 23.704 12.1859 24.0906 13.2361C24.345 13.9271 23.9911 14.6936 23.3 14.948C22.609 15.2024 21.8426 14.8484 21.5882 14.1573C21.3304 13.4572 20.9287 12.8189 20.4088 12.2838C19.889 11.7486 19.2627 11.3285 18.5703 11.0505C17.8869 10.7761 17.5554 9.99976 17.8298 9.3164Z" />
	<path fill-rule="evenodd"
		clip-rule="evenodd"
		d="M18.4012 4.06377C18.5918 3.35248 19.3229 2.93037 20.0342 3.12096C22.295 3.72672 24.3564 4.9169 26.0114 6.57188C27.6664 8.22686 28.8566 10.2883 29.4623 12.5491C29.6529 13.2603 29.2308 13.9915 28.5195 14.182C27.8082 14.3726 27.0771 13.9505 26.8865 13.2392C26.4019 11.4306 25.4498 9.78148 24.1258 8.4575C22.8018 7.13352 21.1526 6.18137 19.344 5.69676C18.6328 5.50617 18.2106 4.77506 18.4012 4.06377Z" />
	<path fill-rule="evenodd"
		clip-rule="evenodd"
		d="M7.20786 6.95386C10.4321 5.87842 13.6903 7.89809 14.5953 11.168C15.212 13.3962 14.628 15.7326 13.2038 17.3325C13.4955 17.7103 13.8142 18.0735 14.1602 18.4197C14.5045 18.7643 14.8656 19.0818 15.241 19.3725C16.8403 17.9371 19.1837 17.3465 21.4184 17.9659C24.6876 18.8721 26.7036 22.1328 25.6298 25.3569C24.9253 27.4724 23.6116 28.7576 21.8595 29.1807C20.2315 29.5738 18.4762 29.1559 16.9281 28.5124C13.81 27.2162 10.7311 24.663 9.32493 23.2558C7.8856 21.8154 5.34346 18.7321 4.05902 15.6198C3.4212 14.0744 3.01052 12.3256 3.40454 10.7051C3.82845 8.96161 5.10719 7.65449 7.20786 6.95386ZM12.0253 11.8793C11.475 9.89121 9.64673 8.95147 8.05162 9.48352C6.6495 9.95117 6.16318 10.6463 5.99571 11.3351C5.79836 12.1468 5.96997 13.2601 6.52401 14.6025C7.6233 17.2661 9.90315 20.0618 11.2112 21.3709C12.4877 22.6483 15.2804 24.9396 17.9517 26.05C19.2982 26.6097 20.417 26.7857 21.2336 26.5885C21.9261 26.4213 22.6276 25.9322 23.0997 24.5143C23.6322 22.9155 22.691 21.0858 20.7061 20.5357C19.2289 20.1262 17.7102 20.6006 16.8063 21.5686C16.2227 22.1937 15.1101 22.5501 14.1635 21.8893C13.4975 21.4244 12.8649 20.8961 12.2739 20.3046C11.682 19.7122 11.1534 19.0782 10.6884 18.4107C10.0319 17.4681 10.3822 16.3599 11.0028 15.7748C11.9636 14.869 12.4333 13.3536 12.0253 11.8793Z" />
</svg>
