<svg width="21" height="21" viewBox="0 0 21 21" fill="none" xmlns="http://www.w3.org/2000/svg">
    <path d="M7.18958 2.56952C7.62716 2.43758 8.09673 2.4595 8.52012 2.63162C8.94351 2.80375 9.29517 3.11569 9.51658 3.51552L9.59058 3.66452L10.2526 5.13552C10.4535 5.582 10.5187 6.0777 10.4401 6.56095C10.3615 7.04421 10.1426 7.4937 9.81058 7.85352L9.67758 7.98552L8.63458 8.95852C8.44658 9.13652 8.58758 9.82552 9.26758 11.0035C9.87958 12.0635 10.3776 12.5585 10.6226 12.5855H10.6656L10.7186 12.5755L12.7686 11.9485C13.0441 11.864 13.3381 11.8607 13.6155 11.9389C13.8928 12.0171 14.1418 12.1735 14.3326 12.3895L14.4236 12.5045L15.7806 14.3845C16.0465 14.753 16.179 15.2011 16.1563 15.655C16.1336 16.1088 15.957 16.5414 15.6556 16.8815L15.5336 17.0075L14.9916 17.5215C14.5049 17.9824 13.896 18.2939 13.2375 18.4189C12.5789 18.5439 11.8983 18.4771 11.2766 18.2265C9.34158 17.4465 7.58358 15.6645 5.98658 12.8985C4.38658 10.1255 3.72158 7.70852 4.01858 5.63852C4.10845 5.01278 4.36612 4.42307 4.76421 3.93201C5.16231 3.44095 5.68597 3.06688 6.27958 2.84952L6.47258 2.78552L7.18958 2.56952Z" fill="white"/>
</svg>
