<svg width="32" height="32" viewBox="0 0 32 32" fill="#000000" xmlns="http://www.w3.org/2000/svg">
	<path fill-rule="evenodd"
		clip-rule="evenodd"
		d="M2.66699 9.33366C2.66699 5.65176 5.65176 2.66699 9.33366 2.66699H22.667C26.3489 2.66699 29.3337 5.65176 29.3337 9.33366V22.667C29.3337 26.3489 26.3489 29.3337 22.667 29.3337H9.33366C5.65176 29.3337 2.66699 26.3489 2.66699 22.667V9.33366ZM9.33366 5.33366C7.12452 5.33366 5.33366 7.12452 5.33366 9.33366V22.667C5.33366 24.8761 7.12452 26.667 9.33366 26.667H22.667C24.8761 26.667 26.667 24.8761 26.667 22.667V9.33366C26.667 7.12452 24.8761 5.33366 22.667 5.33366H9.33366Z" />
	<path fill-rule="evenodd"
		clip-rule="evenodd"
		d="M14.2864 9.59471C15.0637 8.30307 16.9363 8.30306 17.7136 9.59471L19.0455 11.8079L21.562 12.3907C23.0306 12.7309 23.6093 14.5118 22.6211 15.6502L20.9278 17.6009L21.1511 20.1743C21.2814 21.6761 19.7665 22.7768 18.3784 22.1888L16 21.1811L13.6215 22.1888C12.2335 22.7768 10.7185 21.6761 10.8488 20.1743L11.0722 17.6009L9.37889 15.6502C8.39067 14.5118 8.96933 12.7309 10.438 12.3907L12.9544 11.8079L14.2864 9.59471ZM16 11.9189L15.0936 13.4249C14.8144 13.889 14.3589 14.2199 13.8313 14.3421L12.1188 14.7387L13.2711 16.0661C13.6261 16.475 13.8001 17.0105 13.7533 17.5501L13.6013 19.3012L15.2198 18.6155C15.7185 18.4043 16.2815 18.4043 16.7802 18.6155L18.3986 19.3012L18.2467 17.5501C18.1998 17.0105 18.3738 16.475 18.7288 16.0661L19.8811 14.7387L18.1687 14.3421C17.6411 14.2199 17.1856 13.889 16.9063 13.4249L16 11.9189Z" />
</svg>
