<svg width="20" height="28" viewBox="0 0 20 28" fill="#FFFFFF" xmlns="http://www.w3.org/2000/svg">
	<g clip-path="url(#clip0_103_1666)">
		<path fill-rule="evenodd"
			clip-rule="evenodd"
			d="M19.0335 11.7073C19.0335 15.1611 18.2443 17.7347 16.667 19.4119C15.0897 21.0891 12.6532 21.9273 9.36787 21.9273C6.2986 21.9273 3.96947 21.0887 2.38187 19.4119C0.7938 17.7352 -0.000466461 15.2063 2.0552e-07 11.8253V0.482067C0.000933539 0.216067 0.216067 0.000933333 0.4816 0H6.04707C6.31307 0.000933333 6.5282 0.216067 6.52913 0.482067V12.0731C6.52913 13.4535 6.7844 14.5161 7.30427 15.2656C8.23993 16.506 10.0039 16.7529 11.2443 15.8172C11.4305 15.6767 11.5985 15.5139 11.7441 15.3319C12.2523 14.6286 12.5053 13.5921 12.5039 12.2225V10.052H19.0335V11.7068V11.7073Z" />
		<path fill-rule="evenodd"
			clip-rule="evenodd"
			d="M18.5291 8.78453H12.5049V0.504467C12.5058 0.225867 12.7312 0.000466667 13.0093 0H13.9109C13.9128 2.82707 16.2051 5.11793 19.0321 5.11793H19.0335V8.78453H18.5286H18.5291Z" />
		<path fill-rule="evenodd"
			clip-rule="evenodd"
			d="M15.1938 0H18.5286C18.8072 0.000933333 19.0326 0.226333 19.0331 0.504467V3.84393C16.9126 3.84393 15.1934 2.12473 15.1934 0.0042V0L15.1938 0Z" />
		<path fill-rule="evenodd"
			clip-rule="evenodd"
			d="M1.09387 27.4358C1.83073 27.4358 2.18633 27.0256 2.18633 26.4231V24.9713H1.659V26.4087C1.659 26.7223 1.40467 26.9766 1.09107 26.9766C0.777467 26.9766 0.523133 26.7223 0.523133 26.4087V24.9713H0V26.4278C0 27.0228 0.3556 27.4367 1.09247 27.4367L1.0934 27.4358H1.09387ZM5.369 27.3924V26.9388H4.20047L5.3438 25.3843V24.9704H3.5252V25.4245H4.66853L3.5252 26.9743V27.3905L5.369 27.3924V27.3924ZM7.83253 27.4358C8.2558 27.4456 8.64827 27.2151 8.8452 26.8403L8.40093 26.6261C8.2908 26.8399 8.07147 26.9752 7.83113 26.978C7.392 26.9561 7.05367 26.5827 7.0756 26.1436C7.09567 25.7348 7.42233 25.4081 7.83113 25.3881C8.071 25.3923 8.28987 25.5271 8.40093 25.7399L8.8452 25.522C8.64827 25.1477 8.25533 24.9181 7.83253 24.9303C7.14093 24.9097 6.56367 25.4534 6.54267 26.145C6.52213 26.8366 7.0658 27.4139 7.7574 27.4349C7.78213 27.4358 7.80733 27.4358 7.83207 27.4349L7.83253 27.4358ZM12.3359 27.3924L11.403 24.9713H10.7571L9.82053 27.3924H10.4085L10.5611 26.9822H11.5995L11.7483 27.3924H12.3363H12.3359ZM11.4576 26.5286H10.7025L11.0801 25.4865L11.4576 26.5286ZM15.8163 28L14.9277 26.4712C15.2553 26.3923 15.4789 26.089 15.4579 25.7525C15.4737 25.3363 15.1494 24.9863 14.7331 24.9704C14.7037 24.9695 14.6743 24.9699 14.6449 24.9723H13.5119V27.3933H14.0275V26.5328H14.4051L15.2245 27.9995H15.8163V28ZM14.5684 26.0797H14.0275V25.4263H14.5665C14.7471 25.4072 14.9086 25.5383 14.9277 25.7185C14.9469 25.8986 14.8157 26.0605 14.6356 26.0797C14.6127 26.082 14.5899 26.082 14.567 26.0797H14.5689H14.5684ZM17.7506 27.3938C18.5094 27.3938 19.0358 26.9145 19.0358 26.1851C19.0358 25.4557 18.5085 24.9727 17.7506 24.9727H16.7958V27.3938H17.7506ZM17.7506 26.9402H17.3115V25.4268H17.7506C18.1407 25.3979 18.4805 25.6909 18.5094 26.0811C18.5117 26.1156 18.5117 26.1506 18.5094 26.1851C18.5262 26.5851 18.2159 26.9229 17.8159 26.9397C17.794 26.9407 17.7716 26.9407 17.7492 26.9397H17.7506V26.9402Z" />
		<path fill-rule="evenodd"
			clip-rule="evenodd"
			d="M19.6614 24.9262V24.9318C19.6614 25.181 19.4598 25.3826 19.211 25.383C18.9618 25.383 18.7602 25.1814 18.7598 24.9327C18.7598 24.6835 18.9614 24.4819 19.2101 24.4814H19.6609V24.9262H19.6614Z" />
	</g>
	<defs>
		<clipPath id="clip0_103_1666">
			<rect width="19.6616" height="28" />
		</clipPath>
	</defs>
</svg>
