<svg width="63" height="18" viewBox="0 0 63 18" fill="#FFFFFF" xmlns="http://www.w3.org/2000/svg">
	<g clip-path="url(#clip0_103_1677)">
		<path fill-rule="evenodd"
			clip-rule="evenodd"
			d="M9.02481 0C7.23955 0 5.49523 0.527726 4.0108 1.51643C2.52636 2.50513 1.36952 3.91082 0.686759 5.55525C0.0039964 7.20047 -0.174766 9.00982 0.173309 10.7556C0.521384 12.5013 1.38133 14.1049 2.64291 15.3637C3.90527 16.6226 5.51335 17.4793 7.26396 17.8264C9.01457 18.1736 10.829 17.9953 12.4788 17.3144C14.1278 16.6336 15.5374 15.48 16.5289 13.9997C17.5204 12.5193 18.0496 10.7799 18.0496 8.99961C18.0496 6.61228 17.099 4.32311 15.4059 2.63549C13.7144 0.947864 11.4188 0 9.02481 0ZM7.98767 3.1263C8.32945 3.09646 8.67437 3.08154 9.02481 3.08154C9.37525 3.08154 9.72017 3.08154 10.0619 3.1263V7.93316H7.98216L7.98846 3.1263H7.98767ZM14.8373 9.39697C14.8373 10.9346 14.2247 12.4086 13.1348 13.4955C12.0449 14.5823 10.5659 15.1933 9.02481 15.1933C7.48367 15.1933 6.00475 14.5823 4.91485 13.4955C3.82495 12.4086 3.21227 10.9338 3.21227 9.39697V5.9267C3.96748 5.67619 4.73845 5.47829 5.52122 5.3338V9.37577C5.52122 12.283 6.75445 13.8033 9.02481 13.8033C11.2952 13.8033 12.5315 12.283 12.5315 9.37577V5.3338C13.3135 5.47751 14.0837 5.67541 14.8373 5.9267V9.39697Z" />
		<path d="M32.2528 5.33984H39.2096V7.09736L34.9957 10.8731V10.903H39.3553V12.6605H32.0449V10.903L36.2588 7.1272V7.09736H32.2528V5.33984Z" />
		<path d="M28.4011 9.3524V5.33398H30.5139V9.6783C30.5139 12.4457 28.294 12.8046 26.5378 12.8046C24.7817 12.8046 22.5586 12.5761 22.5586 9.6783V5.33398H24.6652V9.3524C24.6652 10.6269 25.5094 10.9316 26.537 10.9316C27.5647 10.9316 28.4003 10.6442 28.4003 9.3524H28.4011Z" />
		<path d="M46.8491 5.33398V9.3524C46.8491 10.6442 46.0143 10.9316 44.9859 10.9316C43.9574 10.9316 43.1195 10.6356 43.1195 9.3524V5.33398H41.0098V9.6783C41.0098 12.5769 43.2329 12.8046 44.989 12.8046C46.7451 12.8046 48.9619 12.4457 48.9619 9.6783V5.33398H46.8491Z" />
		<path d="M56.8378 5.98428C57.5709 5.45812 58.4545 5.18169 59.3578 5.19583C62.0053 5.19583 62.9984 6.88188 62.9984 8.41087V12.6633H60.9005V8.61505C60.9005 7.95697 60.5792 7.068 59.4145 7.068C58.449 7.068 57.9434 7.74964 57.9434 8.37475V12.6625H55.8124V8.37475C55.8124 7.74964 55.2927 7.068 54.3264 7.068C53.1586 7.068 52.8404 7.94519 52.8404 8.61505V12.6633H50.7275V8.41087C50.7275 6.88188 51.6277 5.19583 54.276 5.19583C55.1919 5.18483 56.0873 5.46048 56.8378 5.98428Z" />
	</g>
	<defs>
		<clipPath id="clip0_103_1677">
			<rect width="63" height="18" />
		</clipPath>
	</defs>
</svg>
