<svg width="62" height="20" viewBox="0 0 62 20" fill="#FFFFFF" xmlns="http://www.w3.org/2000/svg">
	<g clip-path="url(#clip0_103_1700)">
		<path d="M26.7785 19.7111H21.7725L24.9036 0.350586H29.9093L26.7785 19.7111Z" />
		<path d="M44.9259 0.824255C43.9385 0.432522 42.3724 0 40.4359 0C35.4923 0 32.011 2.63619 31.9897 6.40515C31.9486 9.18588 34.4821 10.7304 36.377 11.6575C38.3138 12.605 38.9721 13.2234 38.9721 14.0679C38.9524 15.3649 37.4071 15.9628 35.9658 15.9628C33.9672 15.9628 32.8963 15.6545 31.2689 14.9329L30.6097 14.6236L29.9092 18.9696C31.0833 19.5045 33.2464 19.9792 35.4923 20C40.7449 20 44.1646 17.4046 44.2051 13.3882C44.2251 11.1842 42.8873 9.49549 40.0031 8.11552C38.2522 7.22968 37.1799 6.63236 37.1799 5.72598C37.2005 4.902 38.0868 4.05804 40.0633 4.05804C41.6907 4.0167 42.8865 4.40789 43.7923 4.79934L44.2451 5.00493L44.9259 0.824255Z" />
		<path d="M51.5791 12.8524C51.9914 11.7401 53.5778 7.43545 53.5778 7.43545C53.557 7.47679 53.9892 6.30268 54.2364 5.5819L54.5862 7.25012C54.5862 7.25012 55.5342 11.8844 55.7401 12.8524C54.9577 12.8524 52.5679 12.8524 51.5791 12.8524ZM57.7584 0.350586H53.8863C52.6922 0.350586 51.785 0.700435 51.2698 1.95694L43.834 19.7108H49.0867C49.0867 19.7108 49.9514 17.3213 50.1373 16.8067C50.7135 16.8067 55.8233 16.8067 56.5646 16.8067C56.7083 17.4864 57.1619 19.7108 57.1619 19.7108H61.797L57.7584 0.350586Z" />
		<path d="M17.5919 0.350586L12.6893 13.5526L12.1536 10.8751C11.2472 7.78557 8.40461 4.42888 5.23242 2.75984L9.72298 19.6906H15.0167L22.8853 0.350586H17.5919Z" />
		<path d="M8.1366 0.350586H0.0823977L0 0.741771C6.28278 2.3484 10.4437 6.2211 12.1533 10.8759L10.4024 1.97802C10.1142 0.741497 9.22831 0.391374 8.1366 0.350586Z" />
	</g>
	<defs>
		<clipPath id="clip0_103_1700">
			<rect width="61.7974" height="20" />
		</clipPath>
	</defs>
</svg>
