<svg width="290" height="33" viewBox="0 0 290 33" fill="#FFFFFF" xmlns="http://www.w3.org/2000/svg">
	<path d="M0 0.767578H13.9967C17.2267 0.767578 19.7389 1.67615 21.5334 3.31159C23.3278 4.94704 24.0456 7.12763 24.0456 9.67166C24.0456 12.7608 22.7895 14.9414 20.4567 16.2134C22.7895 17.4855 24.0456 19.6661 24.0456 22.7552C24.0456 25.2993 23.1484 27.4798 21.5334 29.1153C19.7389 30.7507 17.2267 31.6593 13.9967 31.6593H0V0.767578ZM5.92168 6.03733V13.306H13.2789C14.7145 13.306 15.9706 12.9425 16.6884 12.3974C17.5856 11.8523 17.9445 10.9437 17.9445 9.67166C17.9445 7.30935 16.3295 6.03733 13.2789 6.03733H5.92168ZM5.92168 18.7575V26.0261H13.2789C14.7145 26.0261 15.9706 25.6627 16.6884 25.1175C17.5856 24.5724 17.9445 23.6638 17.9445 22.3918C17.9445 20.0295 16.3295 18.7575 13.2789 18.7575H5.92168Z" />
	<path d="M55.6274 27.2974C52.7563 30.3866 48.9879 31.8403 44.3224 31.8403C39.6568 31.8403 35.8885 30.3866 33.0174 27.2974C30.1463 24.2082 28.5312 20.3922 28.5312 16.031C28.5312 11.4881 29.9668 7.67204 33.0174 4.76458C35.8885 1.67541 39.6568 0.22168 44.3224 0.22168C48.9879 0.22168 52.7563 1.67541 55.6274 4.76458C58.4985 7.85376 60.1135 11.6698 60.1135 16.031C59.9341 20.5739 58.4985 24.2082 55.6274 27.2974ZM37.324 23.4814C39.1185 25.4802 41.4513 26.5705 44.3224 26.5705C47.1935 26.5705 49.5263 25.4802 51.3207 23.4814C53.1152 21.4825 54.1918 18.9384 54.1918 16.031C54.1918 13.1235 53.2946 10.5795 51.3207 8.58062C49.5263 6.58174 47.1935 5.49145 44.3224 5.49145C41.4513 5.49145 39.1185 6.58174 37.324 8.58062C35.5296 10.5795 34.4529 13.1235 34.4529 16.031C34.4529 18.9384 35.3501 21.4825 37.324 23.4814Z" />
	<path d="M91.1581 10.0352C91.1581 12.3975 90.4404 14.2146 89.1843 16.0318C87.9281 17.6673 86.1337 18.7576 83.6215 19.3027L92.7731 31.296H85.4159L76.6231 19.4844H71.7781V31.296H65.8564V14.0329H71.7781H78.2381H80.3915C81.827 14.0329 83.0831 13.6695 83.9804 12.9426C84.8776 12.2158 85.2365 11.3072 85.2365 10.0352C85.2365 8.76317 84.8776 7.85459 83.9804 7.12773C83.0831 6.40086 81.827 6.03742 80.3915 6.03742H78.2381H71.7781H65.8564V0.585938H80.7503C84.1598 0.585938 86.8515 1.49452 88.6459 3.31168C90.2609 5.12884 91.1581 7.30944 91.1581 10.0352Z" />
	<path d="M119.33 0.767578H125.252V31.2959H118.792L103.719 9.85339V31.2959H97.7969V0.767578H104.257L119.33 22.2101V0.767578Z" />
	<path d="M141.94 18.5758V0.767578H147.862V18.5758C147.862 21.1198 148.58 23.1187 149.836 24.5724C151.092 26.0261 152.887 26.5713 155.219 26.5713C157.552 26.5713 159.347 25.8444 160.603 24.5724C161.859 23.1187 162.577 21.1198 162.577 18.5758V0.767578H168.498V18.5758C168.498 22.7552 167.242 26.2078 164.909 28.5701C162.577 30.9324 159.347 32.0227 155.219 32.0227C151.092 32.0227 147.862 30.9324 145.529 28.5701C143.197 26.0261 141.94 22.7552 141.94 18.5758Z" />
	<path d="M199.004 0.767578V6.21906L181.957 26.0261H199.004V31.4776H174.599V26.0261L191.647 6.21906H174.599V0.767578H199.004Z" />
	<path d="M205.284 0.767578H219.281C222.511 0.767578 225.023 1.67615 226.818 3.31159C228.612 4.94704 229.33 7.12763 229.33 9.67166C229.33 12.7608 228.074 14.9414 225.741 16.2135C228.074 17.4855 229.33 19.6661 229.33 22.7552C229.33 25.2993 228.433 27.4798 226.818 29.1153C225.023 30.7507 222.511 31.6593 219.281 31.6593H205.284V0.767578ZM211.206 6.03734V13.306H218.563C219.999 13.306 221.255 12.9425 221.973 12.3974C222.87 11.8523 223.229 10.9437 223.229 9.67166C223.229 7.30935 221.614 6.03734 218.563 6.03734H211.206ZM211.206 18.7575V26.0261H218.563C219.999 26.0261 221.255 25.6627 221.973 25.1175C222.87 24.5724 223.229 23.6638 223.229 22.3918C223.229 20.0295 221.614 18.7575 218.563 18.7575H211.206Z" />
	<path d="M256.606 6.03734H241.353V13.306H256.247V18.7575H241.353V26.0261H256.606V31.4776H235.431V0.767578H256.606V6.03734Z" />
	<path d="M288.726 31.2959H280.831L269.167 19.1209V31.2959H263.245V0.767578H269.167V13.1243L281.189 0.767578H288.726L274.012 16.0317L288.726 31.2959Z" />
</svg>
